<svg id="Layer_1" enable-background="new 0 0 512 512" viewBox="0 0 512 512" xmlns="http://www.w3.org/2000/svg"><g id="User_Male_Talk"><g id="Glyph"><path d="m223.2 355.4-58.6-10.7c-2.1-.4-4.1 1-4.5 3.1 0 .2-.1.5-.1.7 0 19.6-14.4 35.5-32 35.5-8.8-.1-17.1-3.9-22.8-10.5-6-6.9-9.3-15.8-9.2-25 0-2.1-1.7-3.9-3.9-3.9-.2 0-.5 0-.7.1l-58.6 10.7c-19 3.5-32.9 20-32.8 39.4v117.2h48v-87.7c-.1-4.3 3.2-7.9 7.5-8.3 4.4-.3 8.2 3 8.5 7.4v.5 88h128v-87.7c-.1-4.3 3.2-7.9 7.5-8.3 4.4-.3 8.2 3 8.5 7.4v.5 88h48v-117.1c0-19.3-13.8-35.9-32.8-39.3z"/><path d="m91.7 204c9.2 0 18.1 2.9 25.7 8.1 6.5 4.3 14.8 4.2 21.3-.1 7.5-5.2 16.4-8 25.5-8 8.4.1 16.7 2.3 24 6.4l11.7 3.9c-2.7-10.8-8-20.8-15.3-29.1-27-30.7-73.7-33.7-104.4-6.7-2.3 2-4.5 4.2-6.5 6.5-7.2 8.2-12.4 17.9-15.2 28.5 25.7-9.5 31.1-9.5 33.2-9.5z"/><path d="m129.2 336c-28.4 0-53.2-17.9-61.6-44.5l-.2-.7-11.8-59.2s30.4-11.6 36.1-11.6c6 .1 11.8 1.9 16.8 5.4 11.8 7.9 27.3 7.9 39.1 0 10.5-7.1 22-7.1 34.3-.2l20.9 6.9-11.9 59.1-.1.4c-8.4 26.5-33.2 44.4-61.6 44.4z"/><path d="m472 0h-224c-22.1 0-40 17.9-40 40v128c0 22.1 17.9 40 40 40h40v72.6l90.8-72.6h93.2c22.1 0 40-17.9 40-40v-128c0-22.1-17.9-40-40-40zm-160 64c4.4 0 8 3.6 8 8s-3.6 8-8 8-8-3.6-8-8 3.6-8 8-8zm-32 0c4.4 0 8 3.6 8 8s-3.6 8-8 8-8-3.6-8-8 3.6-8 8-8zm96 80h-96c-4.4 0-8-3.6-8-8s3.6-8 8-8h96c4.4 0 8 3.6 8 8s-3.6 8-8 8zm32 0c-4.4 0-8-3.6-8-8s3.6-8 8-8 8 3.6 8 8-3.6 8-8 8zm32 0c-4.4 0-8-3.6-8-8s3.6-8 8-8 8 3.6 8 8-3.6 8-8 8zm0-32h-160c-4.4 0-8-3.6-8-8s3.6-8 8-8h160c4.4 0 8 3.6 8 8s-3.6 8-8 8zm0-32h-96c-4.4 0-8-3.6-8-8s3.6-8 8-8h96c4.4 0 8 3.6 8 8s-3.6 8-8 8z"/></g></g></svg>