<svg id="Layer_5" enable-background="new 0 0 64 64" height="512" viewBox="0 0 64 64" width="512" xmlns="http://www.w3.org/2000/svg"><g><path d="m30.171 21.171h3.657v3.657h-3.657z" transform="matrix(.707 -.707 .707 .707 -6.891 29.364)"/><path d="m32 28.414-2.586 2.586h5.172z"/><path d="m34.171 25.171h3.657v3.657h-3.657z" transform="matrix(.707 -.707 .707 .707 -8.548 33.364)"/><path d="m41 27.414-3.586 3.586h3.586z"/><path d="m41 15h-3.586l3.586 3.586z"/><path d="m41 21.414-1-1-2.586 2.586 2.586 2.586 1-1z"/><path d="m36 3h-8c-3.841 0-7.225 2.462-8.478 6h24.955c-1.252-3.538-4.636-6-8.477-6z"/><path d="m26.171 25.171h3.657v3.657h-3.657z" transform="matrix(.707 -.707 .707 .707 -10.891 27.707)"/><path d="m45 34v-1h-26v1c0 4.962 4.037 9 9 9h8c4.963 0 9-4.038 9-9zm-13 6c-1.105 0-2-.895-2-2s.895-2 2-2 2 .895 2 2-.895 2-2 2z"/><path d="m34.171 17.171h3.657v3.657h-3.657z" transform="matrix(.707 -.707 .707 .707 -2.891 31.021)"/><path d="m17 11h30v2h-30z"/><path d="m19 15h2v16h-2z"/><path d="m30 45h4v6h-4z"/><path d="m23 31h3.586l-3.586-3.586z"/><path d="m43 15h2v16h-2z"/><path d="m23 24.586 1 1 2.586-2.586-2.586-2.586-1 1z"/><path d="m32 17.586 2.586-2.586h-5.172z"/><path d="m23 18.586 3.586-3.586h-3.586z"/><path d="m26.171 17.171h3.657v3.657h-3.657z" transform="matrix(.707 -.707 .707 .707 -5.234 25.364)"/><path d="m45.895 58.38-9.895-1.522v-3.858h-8v3.858l-9.895 1.522c-1.457.225-2.591 1.265-2.97 2.62h33.729c-.379-1.355-1.512-2.396-2.969-2.62z"/><path d="m48.707 22.293c.189.189.293.44.293.707s-.104.518-.293.707l1.414 1.415c.566-.567.879-1.321.879-2.122s-.313-1.555-.879-2.122z"/><path d="m52.949 18.05-1.414 1.414c.944.945 1.465 2.201 1.465 3.536s-.521 2.591-1.465 3.536l1.414 1.414c1.322-1.323 2.051-3.08 2.051-4.95s-.729-3.627-2.051-4.95z"/><path d="m55.778 15.222-1.414 1.414c3.509 3.509 3.509 9.219 0 12.729l1.414 1.414c4.289-4.29 4.289-11.268 0-15.557z"/><path d="m15.293 23.364-1.414-1.414c-1.17 1.169-1.17 3.073 0 4.243l1.414-1.414c-.39-.391-.39-1.025 0-1.415z"/><path d="m11.051 19.122c-1.322 1.321-2.051 3.079-2.051 4.949s.729 3.627 2.051 4.949l1.414-1.414c-.944-.944-1.465-2.199-1.465-3.535s.521-2.591 1.465-3.536z"/><path d="m9.636 17.707-1.414-1.414c-4.289 4.289-4.289 11.268 0 15.556l1.414-1.414c-3.509-3.509-3.509-9.219 0-12.728z"/></g></svg>